<svg width="41" height="34" xmlns="http://www.w3.org/2000/svg" xmlns:xlink="http://www.w3.org/1999/xlink" xml:space="preserve" overflow="hidden"><defs><clipPath id="clip0"><rect x="397" y="170" width="41" height="34"/></clipPath><clipPath id="clip1"><rect x="398" y="171" width="40" height="33"/></clipPath><clipPath id="clip2"><rect x="398" y="171" width="40" height="33"/></clipPath></defs><g clip-path="url(#clip0)" transform="translate(-397 -170)"><g clip-path="url(#clip1)"><g clip-path="url(#clip2)"><path d="M395.889 136.635C395.889 135.886 396.496 135.279 397.245 135.279L434.32 135.279C435.069 135.279 435.677 135.886 435.677 136.635L435.677 165.752C435.677 166.501 435.069 167.109 434.32 167.109L397.245 167.109C396.496 167.109 395.889 166.501 395.889 165.752Z" fill="#2D3142" fill-rule="evenodd" fill-opacity="1" transform="matrix(1 0 0 1.02304 2.22263 32.7451)"/><text fill="#EDA72B" fill-opacity="1" font-family="Bellota,Bellota_MSFontService,sans-serif" font-style="normal" font-variant="normal" font-weight="700" font-stretch="normal" font-size="44" text-anchor="start" direction="ltr" writing-mode="lr-tb" unicode-bidi="normal" text-decoration="none" transform="matrix(0.66313 0 0 0.678409 399.918 200)">T</text><text fill="#EDA72B" fill-opacity="1" font-family="Bellota,Bellota_MSFontService,sans-serif" font-style="normal" font-variant="normal" font-weight="700" font-stretch="normal" font-size="56" text-anchor="start" direction="ltr" writing-mode="lr-tb" unicode-bidi="normal" text-decoration="none" transform="matrix(0.66313 0 0 0.678409 413.396 200)">Y</text></g></g></g></svg>